<svg xmlns="http://www.w3.org/2000/svg" viewBox="0 0 532.32 97.95">
	<g>
		<path fill="#ff6900" d="M42.61,0c27.71,0,49,19.07,49,47.37s-21.3,48-49,48H11.47C5.21,95.34,0,91.17,0,83.87v-72C0,4.62,5.21,0,11.47,0Z"/>
		<path d="M74.49,37.09c-.15,1.19-1.49,1.19-2.09.15-1.94-3.28-4.47-3.87-8.49-4.17-3-.15-6.55.15-9.83.15a.67.67,0,0,1-.74-.6c.6-2.83,3-8,5.51-8.49,1.19-.15,3.87-.45,5.36-.45,6.85,0,10.58,7.9,10.28,13.41m-38.73,27a47.71,47.71,0,0,0,15.49,1.49,41.26,41.26,0,0,0,19.22-6.26C68.23,65,59.74,68.53,51.69,69.42c0,.45-.15.74-.15,1.19,6.11-.3,11.92-2.38,14.6-4.17-1.49,5.51-8.94,7.75-15.79,8.19a8.85,8.85,0,0,1-.6,1.19,34.28,34.28,0,0,0,10-1.34C56.61,80.3,43.2,84.32,31.88,79a35.74,35.74,0,0,0,3.87-14.9M73.15,24.43a13.1,13.1,0,0,0-9.39-3.58c-4.47,0-8.19,1.19-13.71,1.34-3.72.15-7.15-8-11.62-9.09C36.5,8.79,32,8.19,29.35,10.43c-2.53-1.49-6.41-.74-6.55,2.09-2.83-.89-6.55.6-4.92,4.47-7,.15-8.19,6.41-3.58,7-6.11,3.43-3.28,9.39,1.79,8.19C17,41.12,21,52.74,14.45,55.57c-.74.3-3.72,1-9.39-.3-1.64-.45-3.43-.89-5.07-1.34v4.62c4.92,1.19,9.83,2.09,13,1.79,8.64-.89,9.09-8,8.64-14.3s-2.53-13.26-1.79-18.32l-.3-.3c-3.13,3.28-5.21,2.38-5.51,1.34-.45-2.09,3.28-4.77,5.36-5.66,0-.15.15-.3.15-.45-1.94.3-4.32,0-4.47-1.34-.15-1.64,3.28-3.28,7.75-2.83.15,0,.15-.15.3-.15l-.89-.45c-1.19-.6-1.49-1.64-1-2.23a3.19,3.19,0,0,1,2.68-1,10,10,0,0,1,4,.89c.15,0,.15-.15.3-.15-.3-.3-.74-.6-.89-.89A1.13,1.13,0,0,1,27.41,13a3.11,3.11,0,0,1,3.58.6l.74.74a.55.55,0,0,0,.45-.15,1.61,1.61,0,0,1-.45-1,.89.89,0,0,1,.6-1.19,1.81,1.81,0,0,1,1.79.74A7.27,7.27,0,0,1,35,14.6c-3.13.3-6.85,1.49-9.09,4.62h0a14.2,14.2,0,0,0-1.79,12.22c.89,4.62,2.68,8.94,4.32,13.41h0V45h0C32,55.27,38.88,80.59,5.66,94a13.65,13.65,0,0,0,5.51,1.34H14.6A43,43,0,0,0,29.35,83.13c15.2,6.7,29,3.28,35-7.75a14.56,14.56,0,0,0,6.7-10.73A11.15,11.15,0,0,0,73.29,55c-.15-.6-.74-.6-1.64-.15-12.36,7.45-23.24,8.64-36.2,4.77a97.9,97.9,0,0,0-1.79-12.07c-.3-5.21,1.34-7.75,10.88-4.62,6.26,1.64,9.09,4.47,11.32,6,1,.74,2.38,1.64,3.13,1,.45-.3.6-1.19.6-2.23-.15-2.83-1.49-7.6-2.68-9.39a78,78,0,0,1,8.49,0c3.58.6,3.87,2.53,4.32,3.28,1,3,6.85,2.23,7.3-.3.89-5.21,1.19-12.07-3.87-16.83M7,69.12a54.89,54.89,0,0,0-7,0v3.13c4-.89,6.55-1.34,6.55-1.34Z"/>
		<path fill="#fff" d="M44.25,36.5c-5.21-1.19-11-2.68-14-7.15,0-.15-.15-.15-.3-.15a.15.15,0,0,0-.15.15,1.34,1.34,0,0,0,.15.74l-.45.15c-.74-1.19-1-2.53-.15-3.58,1.19-1.49,3.43-1.34,4.92-.45l-.15.45a3.27,3.27,0,0,0-2.09.15.81.81,0,0,0-.3,1.19c2.53,4.77,10,5.81,18.77,5.07a1.05,1.05,0,0,0,1.19-.89,16.88,16.88,0,0,1,4.17-7.9,23.35,23.35,0,0,1-4.32.3c-4.47.3-7.15-.3-7.9-.89l.15-.45c.45.15,1,.15,1,0s0-.3-.15-.45C43.8,22,39.92,18,39.92,18c-.45-3.43-5.36-3.43-7.3-.15l-.6-.15a5,5,0,0,1,.74-1.79c-4,.89-6.41,4.62-6.85,8-1.79,15.2,21.3,11.62,27.86,17.73.15.15.45.6.6.3s-2.68-3.87-10.13-5.51m-8-18.17c1-.3,2.68.74,3.43,2.38s.6,3.28-.45,3.72S36.5,23.69,35.75,22c-.15-.3-.15-.45-.3-.74h.15a1,1,0,0,0,1,.3c.45-.3.3-.89,0-1.49s-.74-.89-1.19-.89l-.15-.15a2,2,0,0,1,.89-.74"/>
		<path fill="#fff" d="M70.46,59.29a41.26,41.26,0,0,1-19.22,6.26,52.7,52.7,0,0,1-15.49-1.49,22.74,22.74,0,0,1-.45,4.47,62,62,0,0,0,13.26,1.64c-.3,1.64-2.09,7.6-6.41,11.32,8,.3,15.34-2.83,17.58-7a30.45,30.45,0,0,1-10,1.34c.15-.45.45-.74.6-1.19,6.85-.3,14.3-2.53,15.79-8.19-2.68,1.79-8.49,3.87-14.6,4.17,0-.45.15-.74.15-1.19,8-1,16.54-4.47,18.77-10.13"/>
	</g>
</svg>